<?xml version="1.0" encoding="UTF-8" standalone="no"?>
<!-- Created with Inkscape (http://www.inkscape.org/) -->

<svg
   xmlns:dc="http://purl.org/dc/elements/1.1/"
   xmlns:cc="http://creativecommons.org/ns#"
   xmlns:rdf="http://www.w3.org/1999/02/22-rdf-syntax-ns#"
   xmlns:svg="http://www.w3.org/2000/svg"
   xmlns="http://www.w3.org/2000/svg"
   xmlns:xlink="http://www.w3.org/1999/xlink"
   version="1.0"
   width="77"
   height="68"
   id="svg2">
  <metadata
     id="metadata51">
    <rdf:RDF>
      <cc:Work
         rdf:about="">
        <dc:format>image/svg+xml</dc:format>
        <dc:type
           rdf:resource="http://purl.org/dc/dcmitype/StillImage" />
        <dc:title></dc:title>
      </cc:Work>
    </rdf:RDF>
  </metadata>
  <defs
     id="defs4">
    <linearGradient
       x1="214.3952"
       y1="123.53728"
       x2="44.426548"
       y2="142.99388"
       id="linearGradient3199"
       xlink:href="#linearGradient2889"
       gradientUnits="userSpaceOnUse" />
    <linearGradient
       id="linearGradient2889">
      <stop
         id="stop2891"
         style="stop-color:#a0a3e1;stop-opacity:1"
         offset="0" />
      <stop
         id="stop2893"
         style="stop-color:#dedcfa;stop-opacity:1"
         offset="1" />
    </linearGradient>
    <radialGradient
       cx="18.63378"
       cy="17.486208"
       r="40.692665"
       fx="18.934305"
       fy="17.810213"
       id="radialGradient1544"
       xlink:href="#linearGradient4750"
       gradientUnits="userSpaceOnUse"
       gradientTransform="scale(1.036822,0.964486)" />
    <radialGradient
       cx="18.63378"
       cy="17.486208"
       r="40.692665"
       fx="18.934305"
       fy="17.810213"
       id="radialGradient1542"
       xlink:href="#linearGradient4750"
       gradientUnits="userSpaceOnUse"
       gradientTransform="scale(1.036822,0.964486)" />
    <radialGradient
       cx="18.63378"
       cy="17.486208"
       r="40.692665"
       fx="18.934305"
       fy="17.810213"
       id="radialGradient1540"
       xlink:href="#linearGradient4750"
       gradientUnits="userSpaceOnUse"
       gradientTransform="scale(1.036822,0.964486)" />
    <radialGradient
       cx="18.63378"
       cy="17.486208"
       r="40.692665"
       fx="18.934305"
       fy="17.810213"
       id="radialGradient1538"
       xlink:href="#linearGradient4750"
       gradientUnits="userSpaceOnUse"
       gradientTransform="scale(1.036822,0.964486)" />
    <radialGradient
       cx="18.63378"
       cy="17.486208"
       r="40.692665"
       fx="18.934305"
       fy="17.810213"
       id="radialGradient1536"
       xlink:href="#linearGradient4750"
       gradientUnits="userSpaceOnUse"
       gradientTransform="scale(1.036822,0.964486)" />
    <radialGradient
       cx="18.63378"
       cy="17.486208"
       r="40.692665"
       fx="18.934305"
       fy="17.810213"
       id="radialGradient1534"
       xlink:href="#linearGradient4750"
       gradientUnits="userSpaceOnUse"
       gradientTransform="scale(1.036822,0.964486)" />
    <radialGradient
       cx="18.63378"
       cy="17.486208"
       r="40.692665"
       fx="18.934305"
       fy="17.810213"
       id="radialGradient1532"
       xlink:href="#linearGradient4750"
       gradientUnits="userSpaceOnUse"
       gradientTransform="scale(1.036822,0.964486)" />
    <radialGradient
       cx="18.63378"
       cy="17.486208"
       r="40.692665"
       fx="18.934305"
       fy="17.810213"
       id="radialGradient1530"
       xlink:href="#linearGradient4750"
       gradientUnits="userSpaceOnUse"
       gradientTransform="scale(1.036822,0.964486)" />
    <radialGradient
       cx="18.63378"
       cy="17.486208"
       r="40.692665"
       fx="18.934305"
       fy="17.810213"
       id="radialGradient1528"
       xlink:href="#linearGradient4750"
       gradientUnits="userSpaceOnUse"
       gradientTransform="scale(1.036822,0.964486)" />
    <radialGradient
       cx="18.63378"
       cy="17.486208"
       r="40.692665"
       fx="18.934305"
       fy="17.810213"
       id="radialGradient1526"
       xlink:href="#linearGradient4750"
       gradientUnits="userSpaceOnUse"
       gradientTransform="scale(1.036822,0.964486)" />
    <radialGradient
       cx="18.63378"
       cy="17.486208"
       r="40.692665"
       fx="18.934305"
       fy="17.810213"
       id="radialGradient1516"
       xlink:href="#linearGradient4750"
       gradientUnits="userSpaceOnUse"
       gradientTransform="scale(1.036822,0.964486)" />
    <linearGradient
       id="linearGradient4750">
      <stop
         id="stop4752"
         style="stop-color:#ffffff;stop-opacity:1"
         offset="0" />
      <stop
         id="stop4758"
         style="stop-color:#fefefe;stop-opacity:1"
         offset="0.37931034" />
      <stop
         id="stop4754"
         style="stop-color:#1d1d1d;stop-opacity:1"
         offset="1" />
    </linearGradient>
    <radialGradient
       cx="18.63378"
       cy="17.486208"
       r="40.692665"
       fx="18.934305"
       fy="17.810213"
       id="radialGradient3557"
       xlink:href="#linearGradient4750"
       gradientUnits="userSpaceOnUse"
       gradientTransform="matrix(5.57654,0,0,5.187481,56.50405,37.58623)" />
    <radialGradient
       cx="18.63378"
       cy="17.486208"
       r="40.692665"
       fx="18.934305"
       fy="17.810213"
       id="radialGradient3566"
       xlink:href="#linearGradient4750"
       gradientUnits="userSpaceOnUse"
       gradientTransform="matrix(5.57654,0,0,5.187481,56.50405,37.58623)" />
    <radialGradient
       cx="18.63378"
       cy="17.486208"
       r="40.692665"
       fx="18.934305"
       fy="17.810213"
       id="radialGradient3573"
       xlink:href="#linearGradient4750"
       gradientUnits="userSpaceOnUse"
       gradientTransform="matrix(5.57654,0,0,5.187481,56.50405,37.58623)" />
    <radialGradient
       cx="18.63378"
       cy="17.486208"
       r="40.692665"
       fx="18.934305"
       fy="17.810213"
       id="radialGradient3580"
       xlink:href="#linearGradient4750"
       gradientUnits="userSpaceOnUse"
       gradientTransform="matrix(5.57654,0,0,5.187481,56.50405,37.58623)" />
    <radialGradient
       cx="18.63378"
       cy="17.486208"
       r="40.692665"
       fx="18.934305"
       fy="17.810213"
       id="radialGradient3587"
       xlink:href="#linearGradient4750"
       gradientUnits="userSpaceOnUse"
       gradientTransform="matrix(5.57654,0,0,5.187481,56.50405,37.58623)" />
    <radialGradient
       cx="18.63378"
       cy="17.486208"
       r="40.692665"
       fx="18.934305"
       fy="17.810213"
       id="radialGradient3594"
       xlink:href="#linearGradient4750"
       gradientUnits="userSpaceOnUse"
       gradientTransform="matrix(5.57654,0,0,5.187481,56.50405,37.58623)" />
    <radialGradient
       cx="18.63378"
       cy="17.486208"
       r="40.692665"
       fx="18.934305"
       fy="17.810213"
       id="radialGradient3601"
       xlink:href="#linearGradient4750"
       gradientUnits="userSpaceOnUse"
       gradientTransform="matrix(5.57654,0,0,5.187481,56.50405,37.58623)" />
    <radialGradient
       cx="18.63378"
       cy="17.486208"
       r="40.692665"
       fx="18.934305"
       fy="17.810213"
       id="radialGradient3610"
       xlink:href="#linearGradient4750"
       gradientUnits="userSpaceOnUse"
       gradientTransform="matrix(5.57654,0,0,5.187481,56.50405,37.58623)" />
    <radialGradient
       cx="18.63378"
       cy="17.486208"
       r="40.692665"
       fx="18.934305"
       fy="17.810213"
       id="radialGradient3615"
       xlink:href="#linearGradient4750"
       gradientUnits="userSpaceOnUse"
       gradientTransform="matrix(5.57654,0,0,5.187481,56.50405,37.58623)" />
    <radialGradient
       cx="18.63378"
       cy="17.486208"
       r="40.692665"
       fx="18.934305"
       fy="17.810213"
       id="radialGradient3651"
       xlink:href="#linearGradient4750"
       gradientUnits="userSpaceOnUse"
       gradientTransform="scale(1.036822,0.964486)" />
    <radialGradient
       cx="18.63378"
       cy="17.486208"
       r="40.692665"
       fx="18.934305"
       fy="17.810213"
       id="radialGradient3654"
       xlink:href="#linearGradient4750"
       gradientUnits="userSpaceOnUse"
       gradientTransform="matrix(5.57654,0,0,5.187481,56.50405,37.58623)" />
    <filter
       x="-0.32258889"
       y="-0.80493611"
       width="1.6451778"
       height="2.6098721"
       color-interpolation-filters="sRGB"
       id="filter3844">
      <feGaussianBlur
         stdDeviation="18.992624"
         id="feGaussianBlur3846" />
    </filter>
    <linearGradient
       x1="214.3952"
       y1="123.53728"
       x2="44.426548"
       y2="142.99388"
       id="linearGradient3855"
       xlink:href="#linearGradient2889"
       gradientUnits="userSpaceOnUse" />
  </defs>
  <g
     transform="matrix(5.378493,0,0,5.378493,56.50405,-254.41377)"
     id="g3282"
     style="color:#000000;fill:url(#radialGradient1526);fill-opacity:1;fill-rule:nonzero;stroke:none;stroke-width:1.01794541;marker:none;visibility:visible;display:inline;overflow:visible">
    <g
       id="g3284"
       style="opacity:0.75;color:#000000;fill:url(#radialGradient1528);marker:none;visibility:visible;display:inline;overflow:visible">
      <path
         d=""
         id="path3286"
         style="color:#000000;fill:url(#radialGradient1530);marker:none;visibility:visible;display:inline;overflow:visible" />
    </g>
    <g
       id="g3288"
       style="color:#000000;fill:url(#radialGradient1532);marker:none;visibility:visible;display:inline;overflow:visible">
      <path
         d=""
         id="path3290"
         style="color:#000000;fill:url(#radialGradient1534);marker:none;visibility:visible;display:inline;overflow:visible" />
    </g>
  </g>
  <g
     transform="matrix(5.378493,0,0,5.378493,56.50405,-254.41377)"
     id="g3292"
     style="color:#000000;fill:url(#radialGradient1536);fill-opacity:1;fill-rule:nonzero;stroke:none;stroke-width:1.01794541;marker:none;visibility:visible;display:inline;overflow:visible">
    <g
       id="g3294"
       style="opacity:0.75;color:#000000;fill:url(#radialGradient1538);marker:none;visibility:visible;display:inline;overflow:visible">
      <path
         d=""
         id="path3296"
         style="color:#000000;fill:url(#radialGradient1540);marker:none;visibility:visible;display:inline;overflow:visible" />
    </g>
    <g
       id="g3298"
       style="color:#000000;fill:url(#radialGradient1542);marker:none;visibility:visible;display:inline;overflow:visible">
      <path
         d=""
         id="path3300"
         style="color:#000000;fill:url(#radialGradient1544);marker:none;visibility:visible;display:inline;overflow:visible" />
    </g>
  </g>
  <g
     transform="matrix(0.15304505,0,-0.04851423,0.10771832,16.194983,28.297144)"
     id="layer1">
    <path
       d="M 374,169 C 374,252.94728 288.9341,321 184,321 79.065898,321 -6,252.94728 -6,169 -6,85.052718 79.065898,17 184,17 288.9341,17 374,85.052718 374,169 l 0,0 z"
       transform="matrix(0.851641,-0.524127,0.524127,0.851641,-45.27941,132.512)"
       id="path2869"
       style="fill:url(#linearGradient3855);fill-opacity:1;stroke:none" />
  </g>
  <path
     d="m 321.43396,265.88889 a 70.650757,28.314234 0 1 1 -141.30151,0 70.650757,28.314234 0 1 1 141.30151,0 z"
     transform="matrix(0.32703511,0,0,0.21407472,-35.843877,-2.3189993)"
     id="path3818"
     style="fill:#000000;fill-opacity:1;stroke:#000000;stroke-width:2.47384238;stroke-linecap:square;stroke-linejoin:round;stroke-miterlimit:4;stroke-opacity:1;stroke-dasharray:none;stroke-dashoffset:0;filter:url(#filter3844)" />
  <g
     transform="matrix(1.16176,0,0,1.16176,-4.5468977,-1.3011013)"
     id="g3804">
    <path
       d="m 57.003376,28.527358 c 0,11.018795 -8.932667,19.951361 -19.949947,19.951361 -11.018293,0 -19.950453,-8.932665 -19.950453,-19.951361 0,-11.018291 8.93216,-19.9499454 19.950453,-19.9499454 11.01728,0 19.949947,8.9316544 19.949947,19.9499454 l 0,0 z"
       id="path3214"
       style="fill:#a0a2e1;fill-opacity:1;fill-rule:nonzero;stroke:#000000;stroke-width:0.86076301;stroke-miterlimit:4;stroke-opacity:1;stroke-dasharray:none" />
    <path
       d="m 56.526072,25.297726 c -0.625146,0.959255 -1.89156,-0.671011 -2.773092,-0.587315 -1.514357,-1.432245 0.336975,2.697619 1.298955,0.87701 1.326718,1.922804 -1.723283,3.42337 -2.763542,3.976323 -0.23679,-1.577547 -1.129998,-3.084985 -2.002048,-4.543509 -1.675162,-0.972851 0.438011,1.962397 0.585354,2.632415 0.07096,1.578446 1.30311,2.381819 2.724051,1.945022 0.780418,1.963477 -1.933842,3.482316 -2.119721,5.446285 0.04105,1.819779 0.608654,3.642355 -1.57165,4.37136 -0.370251,0.343641 0.989114,1.351839 -0.267841,1.676385 -0.124659,1.970462 -2.011316,2.457516 -3.516581,2.916056 -0.523568,-1.308016 -0.823206,-3.275875 -1.410852,-4.804385 0.184063,-1.839033 0.442201,-3.890264 -0.549217,-5.450023 0.204306,-1.258449 -0.09984,-2.259544 -1.583805,-2.253274 -0.850735,0.15606 -1.117807,0.451767 -1.756564,0.155575 -1.257766,1.349914 -2.392481,-1.401444 -3.058662,-2.340581 -0.681499,-1.049567 0.442473,-1.878883 0.150438,-2.958338 0.863944,-1.722255 1.936595,-3.905544 4.099676,-4.151283 1.555234,-0.634573 2.672354,0.498943 3.700395,1.405882 1.006053,-1.415231 3.651665,1.111234 4.172756,-1.157637 -0.989045,-0.505761 -2.09726,-0.682061 -2.833709,-1.651419 -0.150572,0.967547 -0.608839,1.376606 -1.039136,0.187708 0.07685,-1.04104 -1.750172,-1.673911 -0.511773,-0.388504 0.202127,0.909244 -1.150748,1.212798 -0.53582,0.09754 -1.421151,-1.803775 -3.054322,-0.06782 -3.909805,1.294732 -1.793951,0.595956 -1.843601,-2.663222 0.05036,-2.324102 0.906096,-0.254748 -1.282523,-1.533689 0.551739,-1.410465 0.609562,-0.680926 1.064934,-1.32074 1.722362,-1.56528 0.02762,-1.570745 1.248255,1.340716 2.135755,-0.266829 0.348608,-0.6371 2.182464,-1.627122 0.534466,-1.602349 0.221207,-0.904818 0.425542,-1.964622 -0.648693,-0.79515 -0.60419,0.451321 0.09672,2.825754 -1.212246,1.774293 -0.284924,-1.065757 -1.685597,0.786075 -1.496769,-0.882198 0.779172,-1.190184 1.96928,-2.755679 3.75942,-2.714127 0.669766,0.395217 3.851884,0.575744 1.848046,1.129017 -1.298993,0.153855 1.084446,1.656291 1.155348,0.128558 1.636038,0.247899 2.568781,2.564729 3.796959,3.716447 1.699218,2.403634 2.830273,5.206433 3.275446,8.11616 z M 38.059399,13.522697 c -0.104407,2.12945 3.768895,-1.421347 0.875147,-0.532567 z m 0.820494,-3.460255 C 37.12718,8.9690962 35.074864,9.3973517 33.221712,9.9591913 c -1.184448,0.023453 -2.416528,1.0259337 -0.72372,1.6033787 1.702579,0.696558 -0.876314,1.951211 0.570124,2.928129 0.895349,1.498202 1.772735,-1.934694 3.348008,-1.49083 1.704409,-0.157977 1.946453,-1.627639 2.463769,-2.937528 m 2.01368,7.090501 c -0.576307,-2.257832 -1.479363,1.290359 0,0 z m 0.297502,-0.170295 c -0.77356,1.938293 2.316424,0.301683 0.582153,-0.66785 -0.344558,-1.047914 -1.30237,-1.101871 -0.593554,0.02754 0.124479,0.211156 -0.02953,0.420886 0.01141,0.640406 M 27.74413,30.032384 c -1.477819,0.748136 -2.746413,-1.808394 -3.734258,0.199446 -1.376321,1.060416 -1.88136,-0.881006 -2.015431,-1.758917 -1.530489,0.654065 0.242417,-3.013061 -1.37315,-1.206599 -1.718026,1.40962 -2.077852,-2.232841 -0.488747,-2.597065 1.214405,-0.728449 2.550627,-0.625612 3.270319,0.361771 -0.333326,-1.833923 1.810398,-2.548523 2.295174,-3.993017 1.067974,-0.534243 1.699165,-1.443479 2.920359,-1.643381 1.718731,-1.510992 -2.954202,-0.290184 -0.562956,-1.253348 1.305229,-0.0045 3.707225,-0.706043 1.713034,-1.873467 0.31848,-1.551981 -1.393197,-0.276346 -1.244887,-1.476431 -1.540571,-1.346604 -1.258075,1.814081 -2.551812,2.077075 -0.452562,1.518397 -0.544112,-1.03369 -1.730219,-0.661195 -1.766521,-1.63518 3.669676,-1.981094 1.929628,-3.887256 -1.023215,-0.426949 -1.413933,1.352551 -2.598754,1.528652 -3.483651,3.483221 -5.893921,8.122683 -6.418905,13.063899 0.674645,2.354615 3.702218,1.843112 4.855034,3.685704 0.791729,0.582557 2.381358,0.312993 1.353203,1.754413 -0.777762,1.443426 -1.220401,3.234092 0.05224,4.597084 1.015049,1.466826 2.896389,2.469776 2.323431,4.547161 0.744532,1.573683 -0.877829,3.636704 1.633958,4.173396 1.479543,0.657799 1.5293,-1.921326 2.943564,-2.177716 0.587629,-1.299628 0.201463,-3.027109 2.025203,-3.176577 0.94597,-1.390358 0.07703,-3.18521 1.376468,-4.482228 0.168149,-1.913259 -2.440616,-1.793562 -3.210264,-3.062391 -0.769648,-1.26883 -2.55119,-1.080385 -2.762232,-2.739013 z m 0.76988,-16.172581 c 0.592526,1.069016 2.180755,0.100472 0.731139,-0.349345 -0.285842,-0.01591 -0.565421,0.122235 -0.731139,0.349345 z M 26.575527,13.18509 c -0.886587,1.360774 0.810596,0.937868 0.979801,-0.118884 1.169267,-1.522943 2.727325,1.813438 3.618125,0.07749 -1.014412,-0.57509 -2.3721,-2.157205 -3.575548,-1.09666 -0.943313,-1.340473 0.01955,1.126491 -1.022378,1.138054 z m 2.68388,-2.110829 c 0.550648,-0.451199 3.805075,-1.2029597 1.784758,-1.5558466 -0.529139,0.6116996 -3.011272,0.8222626 -2.428718,1.4439396 0.214653,0.0373 0.429307,0.07461 0.64396,0.111907 z m 1.268281,8.019115 c 1.005018,-0.844822 -0.671906,-1.781126 0,0 z"
       id="path3224"
       style="color:#000000;fill:#cecdf6;fill-opacity:1;fill-rule:nonzero;stroke:#000000;stroke-width:0.86076295;stroke-linecap:butt;stroke-linejoin:miter;stroke-miterlimit:4;stroke-opacity:1;stroke-dasharray:none;stroke-dashoffset:0;marker:none;visibility:visible;display:inline;overflow:visible" />
  </g>
</svg>
