<svg id="a8ffa595-7d68-40d7-b9d7-fc09a5996638" data-name="Layer 1" xmlns="http://www.w3.org/2000/svg" width="300" height="300" viewBox="0 0 300 300">
  <defs>
    <style>
      .aa4b4644-5928-41a0-b375-8f24c58b3ae4, .aef4536f-9c75-445f-9b69-4ae29f04397b {
        fill: none;
        stroke: #000;
        stroke-miterlimit: 10;
        stroke-width: 6px;
      }

      .aa4b4644-5928-41a0-b375-8f24c58b3ae4 {
        stroke-linecap: round;
      }
    </style>
  </defs>
  <line class="aa4b4644-5928-41a0-b375-8f24c58b3ae4" x1="30" y1="214.286" x2="270" y2="214.286"/>
  <g>
    <circle cx="164.497" cy="105.432" r="23"/>
    <path d="M152.552,164.017a104.944,104.944,0,0,1-27.746,15.535c-17.578,6.687-28.832-1.943-37.95-16.118-4.851-7.3-9.1-14.631-13.339-22.206-2.1-3.724-4.187-7.446-6.218-11.216a1.68,1.68,0,0,1,2.634-2c9.117,8.722,17.848,18.1,27.062,26.633,2.023,1.831,4.561,3.947,6.758,5.546,1.582,1.16,4.215,2.732,5.809,2.9,2.312.234,3.27-.623,5.547-1.789,1.44-.839,2.839-1.819,4.218-2.814,6.376-4.782,13.208-10.38,20.681-13.978C152.582,138.723,162.966,155.089,152.552,164.017Z"/>
    <circle cx="114.164" cy="138" r="6"/>
    <path class="aef4536f-9c75-445f-9b69-4ae29f04397b" d="M69.62,130.019c20.132-11.623-1.965-39.532-17.609-30.5S49.489,141.642,69.62,130.019Z"/>
  </g>
  <path d="M220.586,121.827c7.135,5.574,18.686,22.865,14.262,31.958-3.968,7.965-16.392,10.516-21.007,2.121-4.23-6.309-9.157-12.861-12.5-19.734C195.627,124.317,211.009,113.141,220.586,121.827Z"/>
</svg>
